<svg width="64" height="108" viewBox="0 0 64 108" fill="none" xmlns="http://www.w3.org/2000/svg">
<rect x="0.5" y="0.5" width="63" height="107" rx="4.5" stroke="#8A38F5" stroke-dasharray="10 5"/>
<path d="M34 21H30V23H28V25H26V27H24V29H22V31H24V41H31V35H33V41H40V31H42V29H40V27H38V25H36V23H34V21ZM34 23V25H36V27H38V29H40V31H38V39H35V33H29V39H26V31H24V29H26V27H28V25H30V23H34Z" fill="black"/>
<path d="M34 66H30V68H28V70H26V72H24V74H22V76H24V86H31V80H33V86H40V76H42V74H40V72H38V70H36V68H34V66ZM34 68V70H36V72H38V74H40V76H38V84H35V78H29V84H26V76H24V74H26V72H28V70H30V68H34Z" fill="#7CBBCE"/>
</svg>
