<svg width="64" height="108" viewBox="0 0 64 108" fill="none" xmlns="http://www.w3.org/2000/svg">
<rect x="0.5" y="0.5" width="63" height="107" rx="4.5" stroke="#8A38F5" stroke-dasharray="10 5"/>
<path d="M42 22V21H22V22H21V42H22V43H42V42H43V22H42ZM33 36H41V41H33V36ZM33 35V29H41V35H33ZM33 28V23H41V28H33ZM31 29V35H23V29H31ZM23 28V23H31V28H23ZM31 36V41H23V36H31Z" fill="black"/>
<path d="M42 66V65H22V66H21V86H22V87H42V86H43V66H42ZM33 80H41V85H33V80ZM33 79V73H41V79H33ZM33 72V67H41V72H33ZM31 73V79H23V73H31ZM23 72V67H31V72H23ZM31 80V85H23V80H31Z" fill="black"/>
</svg>
