<svg width="64" height="108" viewBox="0 0 64 108" fill="none" xmlns="http://www.w3.org/2000/svg">
<rect x="0.5" y="0.5" width="63" height="107" rx="4.5" stroke="#8A38F5" stroke-dasharray="10 5"/>
<path d="M29 22H25V24H23V26H21V32H23V34H25V36H27V38H29V40H31V42H33V40H35V38H37V36H39V34H41V32H43V26H41V24H39V22H35V24H33V26H31V24H29V22ZM29 24V26H31V28H33V26H35V24H39V26H41V32H39V34H37V36H35V38H33V40H31V38H29V36H27V34H25V32H23V26H25V24H29Z" fill="black"/>
<path d="M29 66H25V68H23V70H21V76H23V78H25V80H27V82H29V84H31V86H33V84H35V82H37V80H39V78H41V76H43V70H41V68H39V66H35V68H33V70H31V68H29V66ZM29 68V70H31V72H33V70H35V68H39V70H41V76H39V78H37V80H35V82H33V84H31V82H29V80H27V78H25V76H23V70H25V68H29Z" fill="#7CBBCE"/>
</svg>
