<svg width="64" height="108" viewBox="0 0 64 108" fill="none" xmlns="http://www.w3.org/2000/svg">
<rect x="0.5" y="0.5" width="63" height="107" rx="4.5" stroke="#8A38F5" stroke-dasharray="10 5"/>
<path d="M39 30V32H38V33H36V32H35V30H36V29H38V30H39ZM34 30V32H33V33H31V32H30V30H31V29H33V30H34ZM29 30V32H28V33H26V32H25V30H26V29H28V30H29Z" fill="black"/>
<path d="M42 28V26H41V25H40V24H38V23H35V22H29V23H26V24H24V25H23V26H22V28H21V34H22V36H23V38H22V39H21V41H26V40H27V39H29V40H35V39H38V38H40V37H41V36H42V34H43V28H42ZM41 34H40V36H38V37H35V38H29V37H27V38H26V39H24V38H25V36H24V34H23V28H24V26H26V25H29V24H35V25H38V26H40V28H41V34Z" fill="black"/>
<path d="M39 74V76H38V77H36V76H35V74H36V73H38V74H39ZM34 74V76H33V77H31V76H30V74H31V73H33V74H34ZM29 74V76H28V77H26V76H25V74H26V73H28V74H29Z" fill="#7CBBCE"/>
<path d="M42 72V70H41V69H40V68H38V67H35V66H29V67H26V68H24V69H23V70H22V72H21V78H22V80H23V82H22V83H21V85H26V84H27V83H29V84H35V83H38V82H40V81H41V80H42V78H43V72H42ZM41 78H40V80H38V81H35V82H29V81H27V82H26V83H24V82H25V80H24V78H23V72H24V70H26V69H29V68H35V69H38V70H40V72H41V78Z" fill="#7CBBCE"/>
</svg>
