<svg width="64" height="108" viewBox="0 0 64 108" fill="none" xmlns="http://www.w3.org/2000/svg">
<rect x="0.5" y="0.5" width="63" height="107" rx="4.5" stroke="#8A38F5" stroke-dasharray="10 5"/>
<path d="M26 26.2C26 25.08 26 24.52 26.218 24.092C26.4097 23.7157 26.7157 23.4097 27.092 23.218C27.52 23 28.08 23 29.2 23H34.8C35.92 23 36.48 23 36.908 23.218C37.2843 23.4097 37.5903 23.7157 37.782 24.092C38 24.52 38 25.08 38 26.2V39.505C38 39.991 38 40.234 37.899 40.367C37.8554 40.4248 37.7997 40.4725 37.7358 40.5067C37.6719 40.5409 37.6013 40.5608 37.529 40.565C37.362 40.575 37.16 40.44 36.756 40.171L32 37L27.244 40.17C26.84 40.44 26.638 40.575 26.47 40.565C26.3978 40.5606 26.3275 40.5407 26.2638 40.5065C26.2001 40.4723 26.1445 40.4247 26.101 40.367C26 40.234 26 39.991 26 39.505V26.2Z" fill="white" stroke="black" stroke-linecap="round" stroke-linejoin="round"/>
<path d="M26 70.2C26 69.08 26 68.52 26.218 68.092C26.4097 67.7157 26.7157 67.4097 27.092 67.218C27.52 67 28.08 67 29.2 67H34.8C35.92 67 36.48 67 36.908 67.218C37.2843 67.4097 37.5903 67.7157 37.782 68.092C38 68.52 38 69.08 38 70.2V83.505C38 83.991 38 84.234 37.899 84.367C37.8554 84.4248 37.7997 84.4725 37.7358 84.5067C37.6719 84.5409 37.6013 84.5608 37.529 84.565C37.362 84.575 37.16 84.44 36.756 84.171L32 81L27.244 84.17C26.84 84.44 26.638 84.575 26.47 84.565C26.3978 84.5606 26.3275 84.5407 26.2638 84.5065C26.2001 84.4723 26.1445 84.4247 26.101 84.367C26 84.234 26 83.991 26 83.505V70.2Z" fill="black" stroke="black" stroke-linecap="round" stroke-linejoin="round"/>
</svg>
