<svg width="58" height="95" viewBox="0 0 58 95" fill="none" xmlns="http://www.w3.org/2000/svg">
<rect x="0.5" y="0.5" width="56.3605" height="93.7189" rx="4.5" stroke="#8A38F5" stroke-dasharray="10 5"/>
<path fill-rule="evenodd" clip-rule="evenodd" d="M32.9521 20.7336C32.7797 20.4581 32.5257 20.2433 32.2255 20.1189C31.9253 19.9946 31.5937 19.9669 31.2771 20.0398L29.0296 20.5561C28.7992 20.609 28.5599 20.609 28.3296 20.5561L26.0821 20.0398C25.7654 19.9669 25.4339 19.9946 25.1337 20.1189C24.8334 20.2433 24.5795 20.4581 24.4071 20.7336L23.1821 22.6886C23.0571 22.8886 22.8883 23.0573 22.6883 23.1836L20.7333 24.4086C20.4583 24.5808 20.2438 24.8344 20.1195 25.1341C19.9952 25.4338 19.9672 25.7648 20.0396 26.0811L20.5558 28.3311C20.6086 28.561 20.6086 28.7999 20.5558 29.0298L20.0396 31.2786C19.967 31.5951 19.9947 31.9263 20.1191 32.2263C20.2434 32.5262 20.4581 32.78 20.7333 32.9523L22.6883 34.1773C22.8883 34.3023 23.0571 34.4711 23.1833 34.6711L24.4083 36.6261C24.7608 37.1898 25.4333 37.4686 26.0821 37.3198L28.3296 36.8036C28.5599 36.7506 28.7992 36.7506 29.0296 36.8036L31.2783 37.3198C31.5948 37.3924 31.9261 37.3646 32.226 37.2403C32.526 37.116 32.7798 36.9013 32.9521 36.6261L34.1771 34.6711C34.3021 34.4711 34.4708 34.3023 34.6708 34.1773L36.6271 32.9523C36.9023 32.7798 37.1169 32.5257 37.241 32.2255C37.3651 31.9253 37.3926 31.5939 37.3196 31.2773L36.8046 29.0298C36.7516 28.7995 36.7516 28.5602 36.8046 28.3298L37.3208 26.0811C37.3936 25.7647 37.366 25.4336 37.2418 25.1336C37.1177 24.8337 36.9033 24.5798 36.6283 24.4073L34.6721 23.1823C34.4724 23.0571 34.3036 22.8883 34.1783 22.6886L32.9521 20.7336ZM32.3233 25.8923C32.4006 25.7502 32.4198 25.5835 32.3768 25.4275C32.3337 25.2715 32.2319 25.1383 32.0926 25.0559C31.9533 24.9734 31.7875 24.9483 31.6301 24.9856C31.4726 25.0229 31.3358 25.1199 31.2483 25.2561L27.9796 30.7886L26.0058 28.8986C25.9473 28.8384 25.8772 28.7907 25.7998 28.7583C25.7224 28.7258 25.6393 28.7093 25.5554 28.7096C25.4714 28.71 25.3884 28.7273 25.3113 28.7604C25.2342 28.7935 25.1646 28.8419 25.1065 28.9025C25.0485 28.9631 25.0033 29.0348 24.9736 29.1133C24.9439 29.1918 24.9303 29.2755 24.9336 29.3593C24.9369 29.4432 24.9571 29.5255 24.9929 29.6014C25.0287 29.6773 25.0794 29.7452 25.1421 29.8011L27.6846 32.2373C27.7526 32.3024 27.8345 32.3512 27.9241 32.3802C28.0136 32.4092 28.1086 32.4176 28.2019 32.4047C28.2951 32.3919 28.3843 32.3581 28.4627 32.306C28.5411 32.2538 28.6067 32.1846 28.6546 32.1036L32.3233 25.8923Z" fill="#7CBBCE"/>
<path fill-rule="evenodd" clip-rule="evenodd" d="M32.9521 58.093C32.7797 57.8176 32.5257 57.6027 32.2255 57.4784C31.9253 57.354 31.5937 57.3264 31.2771 57.3993L29.0296 57.9155C28.7992 57.9684 28.5599 57.9684 28.3296 57.9155L26.0821 57.3993C25.7654 57.3264 25.4339 57.354 25.1337 57.4784C24.8334 57.6027 24.5795 57.8176 24.4071 58.093L23.1821 60.048C23.0571 60.248 22.8883 60.4168 22.6883 60.543L20.7333 61.768C20.4583 61.9402 20.2438 62.1938 20.1195 62.4935C19.9952 62.7932 19.9672 63.1242 20.0396 63.4405L20.5558 65.6905C20.6086 65.9204 20.6086 66.1593 20.5558 66.3893L20.0396 68.638C19.967 68.9545 19.9947 69.2857 20.1191 69.5857C20.2434 69.8857 20.4581 70.1394 20.7333 70.3118L22.6883 71.5368C22.8883 71.6618 23.0571 71.8305 23.1833 72.0305L24.4083 73.9855C24.7608 74.5493 25.4333 74.828 26.0821 74.6793L28.3296 74.163C28.5599 74.1101 28.7992 74.1101 29.0296 74.163L31.2783 74.6793C31.5948 74.7519 31.9261 74.7241 32.226 74.5997C32.526 74.4754 32.7798 74.2607 32.9521 73.9855L34.1771 72.0305C34.3021 71.8305 34.4708 71.6618 34.6708 71.5368L36.6271 70.3118C36.9023 70.1392 37.1169 69.8851 37.241 69.5849C37.3651 69.2847 37.3926 68.9533 37.3196 68.6368L36.8046 66.3893C36.7516 66.1589 36.7516 65.9196 36.8046 65.6893L37.3208 63.4405C37.3936 63.1242 37.366 62.793 37.2418 62.493C37.1177 62.1931 36.9033 61.9392 36.6283 61.7668L34.6721 60.5418C34.4723 60.4165 34.3036 60.2477 34.1783 60.048L32.9521 58.093ZM32.3233 63.2518C32.4006 63.1096 32.4198 62.943 32.3768 62.787C32.3337 62.631 32.2319 62.4977 32.0926 62.4153C31.9533 62.3329 31.7875 62.3077 31.6301 62.345C31.4726 62.3824 31.3358 62.4793 31.2483 62.6155L27.9796 68.148L26.0058 66.258C25.9473 66.1979 25.8772 66.1502 25.7998 66.1177C25.7224 66.0853 25.6393 66.0687 25.5554 66.0691C25.4714 66.0694 25.3884 66.0867 25.3113 66.1198C25.2342 66.153 25.1646 66.2013 25.1065 66.2619C25.0485 66.3226 25.0033 66.3943 24.9736 66.4727C24.9439 66.5512 24.9303 66.6349 24.9336 66.7188C24.9369 66.8026 24.9571 66.885 24.9929 66.9608C25.0287 67.0367 25.0794 67.1046 25.1421 67.1605L27.6846 69.5968C27.7526 69.6618 27.8345 69.7107 27.9241 69.7397C28.0136 69.7687 28.1086 69.777 28.2019 69.7642C28.2951 69.7513 28.3843 69.7175 28.4627 69.6654C28.5411 69.6132 28.6067 69.5441 28.6546 69.463L32.3233 63.2518Z" fill="black"/>
</svg>
